<svg xmlns="http://www.w3.org/2000/svg" width="2516" height="4535.94" viewBox="0 0 1258 2267.97">
  <metadata><?xpacket begin="﻿" id="W5M0MpCehiHzreSzNTczkc9d"?>
<x:xmpmeta xmlns:x="adobe:ns:meta/" x:xmptk="Adobe XMP Core 5.6-c140 79.160451, 2017/05/06-01:08:21        ">
   <rdf:RDF xmlns:rdf="http://www.w3.org/1999/02/22-rdf-syntax-ns#">
      <rdf:Description rdf:about=""/>
   </rdf:RDF>
</x:xmpmeta>

<?xpacket end="w"?></metadata>
<defs>
    <style>
      .cls-1 {
        fill-rule: evenodd;
      }
    </style>
  </defs>
  <path id="Tracks_illu_2" class="cls-1" d="M2865.07,5124.69l427.17,801.52c47.05,88.28,56.77,189.95,27.39,286.27s-94.21,175.26-182.52,222.25-190.04,56.67-286.43,27.27-175.39-94.21-222.43-182.49l-427.18-801.52c-47.04-88.29-56.77-189.95-27.39-286.28s94.21-175.25,182.52-222.24,190.04-56.67,286.43-27.27S2818.02,5036.41,2865.07,5124.69ZM2629.3,6278.95c46.89,88,125.64,152.6,221.73,181.91s197.48,19.65,285.52-27.19,152.64-125.51,181.94-221.53,19.59-197.37-27.3-285.37l-427.17-801.52c-46.9-88-125.65-152.6-221.74-181.91s-197.48-19.66-285.52,27.18-152.64,125.52-181.93,221.54-19.6,197.37,27.3,285.36Zm235.77-1154.26,427.17,801.52c47.05,88.28,56.77,189.95,27.39,286.27s-94.21,175.26-182.52,222.25-190.04,56.67-286.43,27.27-175.39-94.21-222.43-182.49l-427.18-801.52c-47.04-88.29-56.77-189.95-27.39-286.28s94.21-175.25,182.52-222.24,190.04-56.67,286.43-27.27S2818.02,5036.41,2865.07,5124.69ZM2629.3,6278.95c46.89,88,125.64,152.6,221.73,181.91s197.48,19.65,285.52-27.19,152.64-125.51,181.94-221.53,19.59-197.37-27.3-285.37l-427.17-801.52c-46.9-88-125.65-152.6-221.74-181.91s-197.48-19.66-285.52,27.18-152.64,125.52-181.93,221.54-19.6,197.37,27.3,285.36Zm297.6-1187.92,427.53,802.21c55.86,104.8,67.41,225.5,32.52,339.86s-111.84,208.05-216.69,263.84-225.6,67.28-340.04,32.38S2622,6417.47,2566.15,6312.67l-427.54-802.21c-55.85-104.8-67.4-225.5-32.51-339.86s111.83-208.06,216.68-263.84,225.61-67.29,340.04-32.38S2871.04,4986.23,2926.9,5091.03ZM2567.2,6312.11c55.7,104.52,149.24,181.26,263.37,216.07s234.57,23.34,339.13-32.29,181.32-149.09,216.11-263.14,23.28-234.43-32.43-338.95l-427.53-802.21c-55.71-104.52-149.24-181.26-263.37-216.07s-234.58-23.35-339.14,32.29-181.31,149.09-216.1,263.14-23.28,234.43,32.42,338.95Zm425.81-1254.23,425.72,798.8a513.813,513.813,0,0,1,58.78,197.6,524.9,524.9,0,0,1-114.38,374.92,517.719,517.719,0,0,1-356.76,189.83,525.989,525.989,0,0,1-375.18-114.44,513.948,513.948,0,0,1-131.28-159.03l-425.72-798.79a513.865,513.865,0,0,1-58.78-197.6,524.949,524.949,0,0,1,114.37-374.92,517.713,517.713,0,0,1,356.77-189.83,525.989,525.989,0,0,1,375.18,114.44A514.3,514.3,0,0,1,2993.01,5057.88ZM2500.96,6345a513.009,513.009,0,0,0,130.98,158.66,524.764,524.764,0,0,0,374.32,114.18,516.467,516.467,0,0,0,355.94-189.39,523.676,523.676,0,0,0,114.12-374.07,512.6,512.6,0,0,0-58.65-197.14l-425.72-798.8a512.685,512.685,0,0,0-130.97-158.65,524.77,524.77,0,0,0-374.33-114.18,516.507,516.507,0,0,0-355.94,189.38,523.767,523.767,0,0,0-114.11,374.07,512.406,512.406,0,0,0,58.64,197.15Zm552.03-1322.37,428.36,803.75a582.4,582.4,0,0,1,66.63,223.99,595.109,595.109,0,0,1-129.65,425.01,586.818,586.818,0,0,1-404.43,215.18,596.2,596.2,0,0,1-425.29-129.72,582.788,582.788,0,0,1-148.82-180.27l-428.36-803.75a582.519,582.519,0,0,1-66.63-223.99,595.109,595.109,0,0,1,129.65-425.01,586.818,586.818,0,0,1,404.43-215.18,596.187,596.187,0,0,1,425.3,129.73A582.834,582.834,0,0,1,3052.99,5022.63ZM2440.84,6380.01a581.57,581.57,0,0,0,148.52,179.9,595.047,595.047,0,0,0,424.44,129.47,585.635,585.635,0,0,0,403.6-214.75,593.883,593.883,0,0,0,129.39-424.15,581.111,581.111,0,0,0-66.49-223.54l-428.36-803.75a581.679,581.679,0,0,0-148.51-179.9,595.022,595.022,0,0,0-424.45-129.46,585.675,585.675,0,0,0-403.6,214.74,593.883,593.883,0,0,0-129.39,424.15,581.111,581.111,0,0,0,66.49,223.54Zm675.51-1390.1L3544.3,5792.9a652.708,652.708,0,0,1,74.68,251.07,667.033,667.033,0,0,1-145.32,476.37,657.785,657.785,0,0,1-453.3,241.19,668.2,668.2,0,0,1-476.7-145.41,653.291,653.291,0,0,1-166.81-202.05L1948.9,5611.08a652.712,652.712,0,0,1-74.68-251.06,666.916,666.916,0,0,1,145.32-476.38,657.833,657.833,0,0,1,453.3-241.19,668.2,668.2,0,0,1,476.7,145.41A653.291,653.291,0,0,1,3116.35,4989.91ZM2377.9,6413.51a652.1,652.1,0,0,0,166.5,201.69,667.076,667.076,0,0,0,475.85,145.14,656.479,656.479,0,0,0,452.48-240.75,665.776,665.776,0,0,0,145.06-475.52,651.371,651.371,0,0,0-74.55-250.61l-427.95-802.99a651.787,651.787,0,0,0-166.5-201.68,666.979,666.979,0,0,0-475.84-145.15,656.581,656.581,0,0,0-452.48,240.75,665.759,665.759,0,0,0-145.07,475.52,651.492,651.492,0,0,0,74.55,250.61Zm801.98-1458.2,427.56,802.26a724.185,724.185,0,0,1,82.86,278.53,740.005,740.005,0,0,1-161.23,528.49,729.711,729.711,0,0,1-502.89,267.58,741.4,741.4,0,0,1-528.86-161.31,724.849,724.849,0,0,1-185.06-224.16L1884.7,5644.44a724.218,724.218,0,0,1-82.85-278.54,739.974,739.974,0,0,1,161.22-528.49,729.76,729.76,0,0,1,502.9-267.58,741.43,741.43,0,0,1,528.85,161.32A724.594,724.594,0,0,1,3179.88,4955.31ZM2313.32,6446.14a723.485,723.485,0,0,0,184.75,223.79,740.211,740.211,0,0,0,528,161.06,728.576,728.576,0,0,0,502.07-267.15,738.78,738.78,0,0,0,160.97-527.63,722.9,722.9,0,0,0-82.72-278.08l-427.56-802.27a723.617,723.617,0,0,0-184.76-223.78,740.211,740.211,0,0,0-528-161.06A728.513,728.513,0,0,0,1964,4838.16a738.786,738.786,0,0,0-160.97,527.64,723,723,0,0,0,82.72,278.08Zm840.99-778.79,615.11,1154.17-1.05.56L3153.26,5667.91Zm137.35-504.53,0.56,1.06-318.21,169.31-0.56-1.06Zm-39.39-73.91,0.56,1.05-318.21,169.31-0.56-1.05Zm-36.1,545.53,615.12,1154.17-1.06.56L3215.12,5635Zm65.4-34.8,615.12,1154.17-1.06.56L3280.52,5600.2Zm61.28-32.6,615.11,1154.17-1.05.56L3341.79,5567.6Zm63.04-33.55L4021,6687.67l-1.05.56L3404.84,5534.05Z" transform="translate(-1799 -4567.03)"/>
</svg>
