<svg xmlns="http://www.w3.org/2000/svg" width="4740" height="3384" viewBox="0 0 2370 1692">
  <metadata><?xpacket begin="﻿" id="W5M0MpCehiHzreSzNTczkc9d"?>
<x:xmpmeta xmlns:x="adobe:ns:meta/" x:xmptk="Adobe XMP Core 5.6-c140 79.160451, 2017/05/06-01:08:21        ">
   <rdf:RDF xmlns:rdf="http://www.w3.org/1999/02/22-rdf-syntax-ns#">
      <rdf:Description rdf:about=""/>
   </rdf:RDF>
</x:xmpmeta>
<?xpacket end="w"?></metadata>
<defs>
    <style>
      .cls-1 {
        fill-rule: evenodd;
      }
    </style>
  </defs>
  <path id="Tracks_illu_1" class="cls-1" d="M3509.58,1054.85L2281.41,346c-135.26-78.072-232.18-204.723-272.88-356.621s-20.11-310.034,57.99-445.273,204.8-232.135,356.74-272.845,310.12-20.129,445.39,57.943L4096.82,38.058c135.27,78.071,232.18,204.724,272.89,356.621s20.11,310.034-57.99,445.272-204.8,232.139-356.75,272.849S3644.85,1132.93,3509.58,1054.85ZM2867.72-669.188c-134.84-77.823-292.51-98.334-443.97-57.756s-277.76,137.17-355.62,271.977-98.39,292.441-57.81,443.862,137.19,277.669,272.02,355.49L3510.52,1053.24c134.83,77.83,292.51,98.34,443.97,57.75,151.46-40.57,277.76-137.162,355.62-271.969s98.38-292.441,57.8-443.859S4230.73,117.493,4095.89,39.668ZM3509.58,1054.85L2281.41,346c-135.26-78.072-232.18-204.723-272.88-356.621s-20.11-310.034,57.99-445.273,204.8-232.135,356.74-272.845,310.12-20.129,445.39,57.943L4096.82,38.058c135.27,78.071,232.18,204.724,272.89,356.621s20.11,310.034-57.99,445.272-204.8,232.139-356.75,272.849S3644.85,1132.93,3509.58,1054.85ZM2867.72-669.188c-134.84-77.823-292.51-98.334-443.97-57.756s-277.76,137.17-355.62,271.977-98.39,292.441-57.81,443.862,137.19,277.669,272.02,355.49L3510.52,1053.24c134.83,77.83,292.51,98.34,443.97,57.75,151.46-40.57,277.76-137.162,355.62-271.969s98.38-292.441,57.8-443.859S4230.73,117.493,4095.89,39.668ZM3455.53,1150.54L2226.31,441.085C2065.72,348.4,1950.67,198.039,1902.34,17.7s-23.88-368.067,68.85-528.621,243.14-275.588,423.52-323.916,368.18-23.9,528.77,68.787L4152.69-56.589c160.59,92.688,275.65,243.045,323.97,423.382s23.88,368.068-68.85,528.623S4164.68,1171,3984.29,1219.33,3616.12,1243.23,3455.53,1150.54ZM2922.54-764.437c-160.15-92.438-347.44-116.8-527.35-68.6S2065.28-670.111,1972.8-509.988s-116.86,347.357-68.66,527.211,162.94,329.812,323.1,422.251L3456.46,1148.93c160.16,92.44,347.44,116.81,527.35,68.6,179.91-48.19,329.92-162.92,422.39-323.046s116.87-347.357,68.66-527.209c-48.19-179.854-162.94-329.813-323.1-422.253ZM3395.39,1249.09l-1224-706.445a802.365,802.365,0,0,1-241.16-213.2A813.618,813.618,0,0,1,1793.78,49.16a813.476,813.476,0,0,1-21.99-310.948A802.089,802.089,0,0,1,1874.03-567a802.32,802.32,0,0,1,213.28-241.116,814.221,814.221,0,0,1,280.37-136.435,814.309,814.309,0,0,1,311.03-22.007A802.621,802.621,0,0,1,2984-864.371L4207.99-157.926A802.312,802.312,0,0,1,4449.15,55.282,819.915,819.915,0,0,1,4607.59,646.5a808.069,808.069,0,0,1-315.52,546.326,820.686,820.686,0,0,1-591.4,158.45A802.611,802.611,0,0,1,3395.39,1249.09ZM2983.07-862.76a800.77,800.77,0,0,0-304.58-101.949,812.444,812.444,0,0,0-310.33,21.957,812.348,812.348,0,0,0-279.73,136.129,800.569,800.569,0,0,0-212.79,240.555,800.334,800.334,0,0,0-102,304.506,811.6,811.6,0,0,0,21.93,310.24,811.762,811.762,0,0,0,136.15,279.643,800.407,800.407,0,0,0,240.6,212.713l1224,706.446a800.684,800.684,0,0,0,304.57,101.95,818.815,818.815,0,0,0,590.06-158.09,806.329,806.329,0,0,0,314.8-545.058A818.192,818.192,0,0,0,4447.67,56.4a800.579,800.579,0,0,0-240.61-212.712Zm362.02,2208.13L2113.51,634.545a909.674,909.674,0,0,1-273.38-241.687A922.414,922.414,0,0,1,1685.45,75.132a922.161,922.161,0,0,1-24.92-352.481,909.349,909.349,0,0,1,115.89-345.983A909.612,909.612,0,0,1,2018.2-896.658a922.956,922.956,0,0,1,317.82-154.662,923.14,923.14,0,0,1,352.59-24.95,909.849,909.849,0,0,1,346.06,115.838L4266.25-249.611A909.637,909.637,0,0,1,4539.63-7.923a929.539,929.539,0,0,1,179.6,670.207,916.015,916.015,0,0,1-357.67,619.306,930.339,930.339,0,0,1-670.4,179.61A909.963,909.963,0,0,1,3345.09,1345.37ZM3033.74-958.821a907.9,907.9,0,0,0-345.36-115.6,921.058,921.058,0,0,0-351.88,24.9,920.892,920.892,0,0,0-317.18,154.351A907.782,907.782,0,0,0,1778.03-622.4a907.431,907.431,0,0,0-115.65,345.276A920.1,920.1,0,0,0,1687.25,74.65a920.456,920.456,0,0,0,154.37,317.085,907.459,907.459,0,0,0,272.83,241.2L3346.02,1343.76a907.865,907.865,0,0,0,345.36,115.59,928.343,928.343,0,0,0,669.06-179.25,914.1,914.1,0,0,0,356.94-618.04A927.665,927.665,0,0,0,4538.14-6.8,907.558,907.558,0,0,0,4265.32-248Zm254.5,2399.891L2057.83,730.923a1019.462,1019.462,0,0,1-306.42-270.9A1033.838,1033.838,0,0,1,1578.03,103.9a1033.822,1033.822,0,0,1-27.93-395.086,1019.1,1019.1,0,0,1,129.9-387.8,1019.427,1019.427,0,0,1,271-306.358A1034.51,1034.51,0,0,1,2307.23-1158.7a1034.424,1034.424,0,0,1,395.2-27.96,1019.67,1019.67,0,0,1,387.89,129.83L4320.73-346.68a1019.367,1019.367,0,0,1,306.42,270.9,1041.916,1041.916,0,0,1,201.32,751.214,1026.789,1026.789,0,0,1-400.9,694.157,1042.671,1042.671,0,0,1-751.44,201.31A1019.556,1019.556,0,0,1,3288.24,1441.07ZM3089.39-1055.22a1017.92,1017.92,0,0,0-387.19-129.6,1032.938,1032.938,0,0,0-394.49,27.91,1032.726,1032.726,0,0,0-355.6,173.054,1017.755,1017.755,0,0,0-270.5,305.8,1017.327,1017.327,0,0,0-129.67,387.093,1031.96,1031.96,0,0,0,27.89,394.381A1031.951,1031.951,0,0,0,1752.9,458.905a1017.637,1017.637,0,0,0,305.86,270.407L3289.17,1439.46a1017.978,1017.978,0,0,0,387.19,129.6,1040.86,1040.86,0,0,0,750.09-200.96,1024.872,1024.872,0,0,0,400.17-692.893A1039.976,1039.976,0,0,0,4625.67-74.66,1017.537,1017.537,0,0,0,4319.8-345.069Zm143.33,2594.64-1229.29-709.5a1130.915,1130.915,0,0,1-339.95-300.539,1146.93,1146.93,0,0,1-192.35-395.087,1146.906,1146.906,0,0,1-30.99-438.314,1130.769,1130.769,0,0,1,144.11-430.221A1131.148,1131.148,0,0,1,1884.9-1074.12c118.27-89.05,251.24-153.76,395.21-192.32a1147.575,1147.575,0,0,1,438.44-31.02,1131.276,1131.276,0,0,1,430.33,144.03L4378.17-443.921a1130.854,1130.854,0,0,1,339.95,300.537c89.06,118.232,153.77,251.158,192.34,395.085s49,291.4,31,438.314a1139.223,1139.223,0,0,1-444.76,770.1c-118.28,89.04-251.25,153.75-395.22,192.32s-291.47,49.01-438.43,31.02A1131.121,1131.121,0,0,1,3232.72,1539.42Zm-84.77-2691.24a1129.527,1129.527,0,0,0-429.63-143.8c-146.72-17.96-293.99-7.54-437.73,30.97a1146.109,1146.109,0,0,0-394.57,192.01,1129.176,1129.176,0,0,0-300.15,339.326A1128.851,1128.851,0,0,0,1441.99-303.8c-17.98,146.68-7.57,293.913,30.94,437.606s103.12,276.408,192.04,394.45a1128.943,1128.943,0,0,0,339.39,300.047l1229.29,709.5a1129.355,1129.355,0,0,0,429.63,143.8c146.72,17.96,293.99,7.54,437.72-30.97s276.5-103.11,394.58-192.01a1137.3,1137.3,0,0,0,444.03-768.842c17.97-146.678,7.56-293.91-30.95-437.6a1144.833,1144.833,0,0,0-192.03-394.448A1129.016,1129.016,0,0,0,4377.24-442.31ZM2678.02,574.956L909.5-445.775l0.93-1.613L2678.96,573.345Zm235.15,781.924-1.61-.93,281.42-487.283,1.61,0.93Zm113.26,65.36-1.61-.93,281.42-487.277,1.61,0.932ZM2623.31,669.69L854.785-351.041l0.931-1.611L2624.24,668.079Zm-57.84,100.148L796.946-250.894l0.931-1.611L2566.4,768.227Zm-54.19,93.832L742.754-157.062l0.931-1.611L2512.21,862.059Zm-55.75,96.537L687-60.524l0.931-1.611L2456.46,958.6Z" transform="translate(-687)"/>
</svg>
